<?xml version="1.0" encoding="UTF-8"?>
<svg width="1200pt" height="1200pt" fill="#ddd" version="1.1" viewBox="0 0 1200 1200" xmlns="http://www.w3.org/2000/svg">
 <g>
  <path d="m953.12 1193.8h-756.25c-13.824 0-25-11.176-25-25v-1137.5c0-13.824 11.176-25 25-25h756.25c13.824 0 25 11.176 25 25v1137.5c0 13.824-11.176 25-25 25zm-731.25-50h706.25v-1087.5h-706.25z"/>
  <path d="m485.43 188.55h-195.85c-13.824 0-25-11.176-25-25s11.176-25 25-25h195.85c13.824 0 25 11.176 25 25s-11.176 25-25 25z"/>
  <path d="m297.65 1000.2c-6.3984 0-12.801-2.4492-17.676-7.3242-9.7734-9.7734-9.7734-25.574 0-35.352l78.648-78.648c9.7734-9.7734 25.574-9.7734 35.352 0 9.7734 9.7734 9.7734 25.574 0 35.352l-78.648 78.648c-4.875 4.875-11.273 7.3242-17.676 7.3242z"/>
  <path d="m376.3 1000.2c-6.3984 0-12.801-2.4492-17.676-7.3242l-78.648-78.648c-9.7734-9.7734-9.7734-25.574 0-35.352 9.7734-9.7734 25.574-9.7734 35.352 0l78.648 78.648c9.7734 9.7734 9.7734 25.574 0 35.352-4.9023 4.875-11.277 7.3242-17.676 7.3242z"/>
  <path d="m887.5 1005.2h-429.18c-13.824 0-25-11.176-25-25s11.176-25 25-25h429.18c13.824 0 25 11.176 25 25s-11.176 25-25 25z"/>
  <path d="m556.25 282.3h-266.68c-13.824 0-25-11.176-25-25s11.176-25 25-25h266.68c13.824 0 25 11.176 25 25s-11.176 25-25 25z"/>
  <path d="m854.18 557.3h-564.6c-13.824 0-25-11.176-25-25s11.176-25 25-25h564.6c13.824 0 25 11.176 25 25s-11.176 25-25 25z"/>
  <path d="m854.18 661.45h-564.6c-13.824 0-25-11.176-25-25s11.176-25 25-25h564.6c13.824 0 25 11.176 25 25s-11.176 25-25 25z"/>
  <path d="m854.18 765.62h-564.6c-13.824 0-25-11.176-25-25s11.176-25 25-25h564.6c13.824 0 25 11.176 25 25s-11.176 25-25 25z"/>
  <path d="m822.93 115.62c-35.676 0-64.574 28.926-64.574 64.574 0 19.875 9.1758 37.449 23.324 49.301l-49.625 152.18 53.449-23.625-12.523-29.023 29.023-12.523-12.574-29.004 29.023-12.523-12.699-32.777c5.5 1.5234 11.176 2.6016 17.176 2.6016 35.676 0 64.574-28.926 64.574-64.574 0-35.676-28.926-64.602-64.574-64.602zm6.25 64.574c-11.5 0-20.824-9.3242-20.824-20.824s9.3242-20.824 20.824-20.824 20.824 9.3242 20.824 20.824-9.3242 20.824-20.824 20.824z"/>
  <path d="m732.02 384.82c-0.75 0-1.5234-0.27344-2.1016-0.80078-0.89844-0.82422-1.25-2.125-0.875-3.3008l48.977-150.2c-14.523-12.977-22.824-31.176-22.824-50.324 0-37.324 30.375-67.699 67.727-67.699 37.324 0 67.699 30.375 67.699 67.699 0 37.352-30.375 67.727-67.699 67.727-3.8984 0-7.8242-0.42578-12.074-1.3008l10.523 27.227c0.60156 1.5508-0.125 3.3242-1.6484 4l-26.176 11.273 11.301 26.148c0.67578 1.5742-0.050781 3.4258-1.625 4.125l-26.148 11.273 11.301 26.125c0.64844 1.5742-0.050781 3.4258-1.6016 4.1016l-53.449 23.625c-0.45312 0.20312-0.85156 0.30078-1.3047 0.30078zm90.902-266.07c-33.875 0-61.477 27.574-61.477 61.449 0 17.977 8.0742 35.074 22.199 46.926 0.97656 0.82422 1.375 2.1484 0.97656 3.375l-47.426 145.5 44.199-19.551-11.301-26.148c-0.67578-1.5742 0.050782-3.4258 1.625-4.125l26.148-11.273-11.301-26.148c-0.32422-0.75-0.32422-1.625-0.023437-2.3984 0.32422-0.77344 0.89844-1.3984 1.6484-1.7266l26.273-11.324-11.602-29.977c-0.44922-1.1016-0.19922-2.3516 0.57422-3.2266 0.82422-0.875 2.0234-1.2266 3.1758-0.89844 6.0742 1.6992 11.25 2.5 16.301 2.5 33.875 0 61.449-27.602 61.449-61.477 0.007812-33.875-27.566-61.477-61.441-61.477zm6.25 64.574c-13.199 0-23.977-10.75-23.977-23.949s10.773-23.949 23.977-23.949c13.199 0 23.949 10.75 23.949 23.949s-10.75 23.949-23.949 23.949zm0-41.648c-9.7734 0-17.727 7.9258-17.727 17.699s7.9492 17.699 17.727 17.699c9.7734 0 17.699-7.9258 17.699-17.699s-7.9258-17.699-17.699-17.699z"/>
 </g>
</svg>
